<?xml version="1.0" encoding="UTF-8"?>
<!DOCTYPE svg PUBLIC "-//W3C//DTD SVG 1.1//EN" "http://www.w3.org/Graphics/SVG/1.1/DTD/svg11.dtd">
<!-- Creator: CorelDRAW 2020 (64-Bit) -->
<svg xmlns="http://www.w3.org/2000/svg" xml:space="preserve" width="100mm" height="100mm" version="1.1" style="shape-rendering:geometricPrecision; text-rendering:geometricPrecision; image-rendering:optimizeQuality; fill-rule:evenodd; clip-rule:evenodd"
viewBox="0 0 10000 10000"
 xmlns:xlink="http://www.w3.org/1999/xlink"
 xmlns:xodm="http://www.corel.com/coreldraw/odm/2003">
 <defs>
  <style type="text/css">
   <![CDATA[
    .fil1 {fill:#211E1E}
    .fil0 {fill:#8B8C8C}
   ]]>
  </style>
 </defs>
 <g id="Layer_x0020_1">
  <metadata id="CorelCorpID_0Corel-Layer"/>
  <path class="fil0" d="M8349.06 3843.69c-240.66,3739.94 -544.15,4475.78 -4286.91,4522.04 -83.03,515.04 -17.1,592.9 -102.17,1178.51 4955.8,142.94 5368.68,-1783.16 5483.91,-5778.23 -267.76,-7.73 0,0 -1094.83,77.68z"/>
  <path class="fil1" d="M1532.51 8093.06c0,1402.28 2995.93,-827.4 3328.47,-967.22 492.41,-207.04 298.96,-670.98 -416.13,-670.98 -750.13,0 -800.91,-76.88 -800.91,-473.23 0,-591.08 188.89,-982.92 -364.02,-982.92 -366.94,0 -1747.41,2426.73 -1747.41,3094.35z"/>
  <path class="fil0" d="M4808.91 4780.29c430.27,0 546.07,-74.73 546.07,400.43 0,323.34 -249.52,254.85 -582.49,254.85 -224.57,0 -242.29,-655.28 36.42,-655.28zm-910.13 -291.27l36.55 910c36.59,715.17 -94.81,801.04 1674.45,801.04 578.66,-56.89 473.27,-587.9 473.27,-1055.76 0,-808.65 -99.32,-1014.18 -560.73,-1077.43 -563.74,-77.31 -688.47,-57.44 -1259.18,-14.4 -250.8,18.96 -364.36,168.51 -364.36,436.55z"/>
  <path class="fil0" d="M1644.77 6081.6c321.77,-3733.84 641.16,-4462.92 4384.04,-4427.94 94.2,-513.11 29.97,-592.39 127.73,-1176.01 -4951.53,-250.47 -5406.11,1666.22 -5608.03,5657.85 267.53,13.53 0,0 1096.26,-53.9z"/>
  <path class="fil1" d="M8660.66 2018.91c0,-1402.27 -2995.93,827.4 -3328.47,967.23 -492.41,207.03 -298.96,670.97 416.13,670.97 750.13,0 800.91,76.88 800.91,473.23 0,591.08 -188.89,982.92 364.01,982.92 366.94,0 1747.42,-2426.73 1747.42,-3094.35z"/>
 </g>
</svg>
