<?xml version="1.0" encoding="UTF-8"?>
<!DOCTYPE svg PUBLIC "-//W3C//DTD SVG 1.1//EN" "http://www.w3.org/Graphics/SVG/1.1/DTD/svg11.dtd">
<!-- Creator: CorelDRAW 2020 (64-Bit) -->
<svg xmlns="http://www.w3.org/2000/svg" xml:space="preserve" width="100mm" height="100mm" version="1.1" style="shape-rendering:geometricPrecision; text-rendering:geometricPrecision; image-rendering:optimizeQuality; fill-rule:evenodd; clip-rule:evenodd"
viewBox="0 0 10000 10000"
 xmlns:xlink="http://www.w3.org/1999/xlink"
 xmlns:xodm="http://www.corel.com/coreldraw/odm/2003">
 <defs>
  <style type="text/css">
   <![CDATA[
    .fil0 {fill:#211E1E}
   ]]>
  </style>
 </defs>
 <g id="Layer_x0020_1">
  <metadata id="CorelCorpID_0Corel-Layer"/>
  <path class="fil0" d="M9149.72 8051.37c-1029.68,2060.51 -7829.28,1474.01 -8345.66,-112.79 847.05,-1419.23 6733.61,-2185.09 8345.66,112.79zm-8260.24 -4918.83c1316.25,598.33 2335.35,865.47 3439.87,977.25 121.88,679.1 10.24,1728.5 -2.6,2010.49 -1400.13,327.45 -1994.52,358.14 -3428.51,822.19 19.86,-728.11 -8.76,-3096.79 -8.76,-3809.93zm8184.87 3976.35c-1449.76,-612.34 -2011.5,-891.74 -3448.62,-922.57 0,-434.95 -42.13,-1593.63 -69.6,-2025.59 1264.31,-248.86 2034.84,-346.45 3533.47,-801.07 75.47,1710.07 -15.25,3437.22 -15.25,3749.23zm-8214.4 -4724.71c458.13,-1861.05 7778.68,-1895.2 8260.24,-40.74 -427.59,1480.46 -7872.86,1479.88 -8260.24,40.74zm-607.96 -488.67l0 6149.17c428.51,2076.97 9272.61,2297.93 9488.42,0l0 -6108.43c-823.48,-1565.5 -7153.31,-2653.71 -9488.42,-40.74z"/>
  <path class="fil0" d="M4863.67 2747.8c1386.13,-63.63 1323.89,-989.23 125.68,-1009.81 -1333.04,13.17 -1331.45,983.84 -125.68,1009.81z"/>
  <path class="fil0" d="M5026.87 8562.99c1386.13,-63.64 1323.89,-989.23 125.68,-1009.82 -1333.04,13.18 -1331.45,983.84 -125.68,1009.82z"/>
 </g>
</svg>
