<?xml version="1.0" encoding="UTF-8"?>
<!DOCTYPE svg PUBLIC "-//W3C//DTD SVG 1.1//EN" "http://www.w3.org/Graphics/SVG/1.1/DTD/svg11.dtd">
<!-- Creator: CorelDRAW 2020 (64-Bit) -->
<svg xmlns="http://www.w3.org/2000/svg" xml:space="preserve" width="100mm" height="100mm" version="1.1" style="shape-rendering:geometricPrecision; text-rendering:geometricPrecision; image-rendering:optimizeQuality; fill-rule:evenodd; clip-rule:evenodd"
viewBox="0 0 10000 10000"
 xmlns:xlink="http://www.w3.org/1999/xlink"
 xmlns:xodm="http://www.corel.com/coreldraw/odm/2003">
 <defs>
  <style type="text/css">
   <![CDATA[
    .fil0 {fill:#656363}
    .fil1 {fill:#9B9A9A}
   ]]>
  </style>
 </defs>
 <g id="Layer_x0020_1">
  <metadata id="CorelCorpID_0Corel-Layer"/>
  <path class="fil0" d="M2234.86 3081.41l0 3767.69c0,654.16 502.71,891.3 1134.32,891.3l3241.06 0c786.12,0 1134.32,-339.06 1134.32,-1093.85l0 -3362.59c0,-596.16 -290.54,-1053.32 -891.25,-1053.32l-3808.21 0c-400.51,0 -810.24,352.85 -810.24,850.77z"/>
  <path class="fil1" d="M290.24 311.34l0 3337.24c257.48,0 453.52,19.52 1093.85,2.58l0 -1420.52c0,-558.98 -25.31,-316.91 -5.07,-850.76 793.54,0 1206.96,40.24 2257.88,-23.74 45.03,-251.45 15.89,-750.71 15.89,-1070.11 -1312.71,0 -3028.7,25.31 -3362.55,25.31z"/>
  <path class="fil1" d="M4382.02 1333.41c443.13,15.03 847.66,15.27 1162.27,-0.57 -10.05,-644.11 0,-488.16 4.45,-1046l-1166.72 -0.81 0 1047.38z"/>
  <path class="fil1" d="M9668.6 294.12l-3337.23 0c0,257.48 -19.52,453.52 -2.58,1093.84l1420.51 0c558.98,0 316.91,-25.31 850.77,-5.07 0,793.54 -40.24,1206.96 23.73,2257.89 251.45,45.02 750.72,15.88 1070.11,15.88 0,-1312.71 -25.31,-3028.7 -25.31,-3362.54z"/>
  <path class="fil1" d="M304.17 9696.26l0 -3337.24c257.48,0 453.52,-19.52 1093.84,-2.58l0 1420.52c0,558.98 -25.31,316.91 -5.07,850.76 793.54,0 1206.96,-40.24 2257.89,23.74 45.02,251.45 15.88,750.71 15.88,1070.11 -1312.71,0 -3028.7,-25.31 -3362.54,-25.31z"/>
  <path class="fil1" d="M9693.72 9695.59l0 -3337.24c-257.48,0 -453.52,-19.52 -1093.84,-2.58l0 1420.52c0,558.98 25.31,316.91 5.07,850.76 -793.54,0 -1206.96,-40.24 -2257.89,23.74 -45.02,251.45 -15.88,750.71 -15.88,1070.11 1312.71,0 3028.7,-25.31 3362.54,-25.31z"/>
  <path class="fil1" d="M266.75 5500.79c443.14,15.03 847.66,15.27 1162.27,-0.57 -10.05,-644.11 0,-488.17 4.45,-1046l-1166.72 -0.81 0 1047.38z"/>
  <path class="fil1" d="M8558.92 5499.16c443.14,15.03 847.66,15.27 1162.27,-0.57 -10.05,-644.11 0,-488.16 4.45,-1046l-1166.72 -0.81 0 1047.38z"/>
  <path class="fil1" d="M4406.28 9696.64c443.13,15.03 847.66,15.26 1162.27,-0.57 -10.05,-644.11 0,-488.17 4.45,-1046l-1166.72 -0.81 0 1047.38z"/>
 </g>
</svg>
