<?xml version="1.0" encoding="UTF-8"?>
<!DOCTYPE svg PUBLIC "-//W3C//DTD SVG 1.1//EN" "http://www.w3.org/Graphics/SVG/1.1/DTD/svg11.dtd">
<!-- Creator: CorelDRAW 2020 (64-Bit) -->
<svg xmlns="http://www.w3.org/2000/svg" xml:space="preserve" width="184.71mm" height="184.71mm" version="1.1" style="shape-rendering:geometricPrecision; text-rendering:geometricPrecision; image-rendering:optimizeQuality; fill-rule:evenodd; clip-rule:evenodd"
viewBox="0 0 18471 18471"
 xmlns:xlink="http://www.w3.org/1999/xlink"
 xmlns:xodm="http://www.corel.com/coreldraw/odm/2003">
 <defs>
  <style type="text/css">
   <![CDATA[
    .fil1 {fill:#1EB980}
    .fil0 {fill:#1EB980;fill-rule:nonzero}
   ]]>
  </style>
 </defs>
 <g id="Layer_x0020_1">
  <metadata id="CorelCorpID_0Corel-Layer"/>
  <polygon class="fil0" points="10320.27,8862.45 8220.27,9923.95 8666.87,8873.95 8220.27,7823.95 "/>
  <path class="fil0" d="M18112.93 16630.66l-17766.24 0c-70.13,0 -116.88,-46.76 -116.88,-116.88 0,-70.12 46.76,-116.88 116.88,-116.88l17766.24 0c70.13,0 116.88,46.76 116.88,116.88 0,70.12 -46.76,116.88 -116.88,116.88z"/>
  <g id="top">
   <path class="fil1" d="M7713.19 9734.96c-49.48,-291.49 -6.1,-1184.23 -5.33,-1536.68 0.7,-324.72 45.5,-320.45 252.63,-524.51 541.69,-533.66 459.92,-380.38 1974.4,-366.25 323.89,3.02 322.34,70.17 526.95,276.55 530.13,534.73 394.95,397.74 372.27,1976.29 -4.25,295.62 -90.36,346.04 -274.5,537.42 -497.5,517.01 -668.85,349.84 -1987.43,335.2 -299.89,-3.33 -314.36,-98.78 -499.83,-283.63 -80.05,-79.8 -341.39,-309.75 -359.16,-414.39zm-2412.7 -4084.76c156.04,197.92 405.56,329.88 609.93,609.3 1089.09,1489.06 1509.05,2688.62 520.36,4489.78 -322.94,588.35 -693.74,909.16 -1134.05,1349.56 94.5,152.61 576.86,645.57 722.25,740.93 422.46,-284.44 328.85,-484.31 1346.11,-1112.46 524.04,-323.58 1246.47,-563.28 1866.69,-572.2 1315.18,-18.9 2466.87,800.53 3253.64,1680.42 184.5,-67.35 643.2,-562.49 758.34,-738.16 -199.06,-254.42 -599.21,-446.37 -1112.23,-1313.95 -1109.61,-1876.44 -494.52,-3769.68 1104.11,-5126.75 -128.21,-175.14 -586.82,-647.23 -767.23,-748.59 -227.24,236.5 -309.63,359.92 -582.41,596.8 -243.88,211.78 -430.54,340.98 -714.89,511.22 -541.72,324.33 -1256.92,572.99 -1895.16,575.08 -1164.4,3.82 -2568.2,-814.1 -3204.54,-1674.86 -163.1,62.13 -664.4,583.97 -770.92,733.88z"/>
   <path class="fil1" d="M4416.44 12714.98c-143.79,-169.7 -95.87,-234.91 -314.49,-350.3 -525.93,-277.57 -2667.65,-1396.48 -2903.52,-1412.36 -145.5,424.95 137.06,461.77 470.62,732.66l1522.55 1196.49c385.87,315.62 470.8,257.78 845,466.89 42.71,646.28 430.71,733.13 971.92,735.65 218.22,426.9 294.49,380.5 695.73,583.49 281.24,142.3 558.41,288.12 843.84,427.76 274.26,134.18 1473.58,786.35 1661.98,805.81 206.84,-340.47 -145.41,-514.51 -402.83,-706.09l-1846.35 -1443.32c-150.28,-96.66 -281.17,-101.54 -416.49,-205.41l409.42 -611.39 -762.46 -761.79 -774.92 541.91z"/>
   <path class="fil1" d="M4982.44 3668.31c-563.16,-61.67 -893.05,151.63 -950.22,735.03 -421.2,188.53 -478.63,163.21 -846.98,468.01 -248.44,205.56 -512.96,392.16 -764.23,596.02 -239.25,194.11 -512.09,420.11 -756.69,601.46 -279.34,207.08 -651.9,359.28 -453.85,717.81 216.61,-10.94 2031.28,-973.5 2473.71,-1195.26 504.41,-252.83 375.09,-163.82 729.98,-560.68l777.86 540.56c140.15,-120.87 684.48,-680.65 761.71,-794.98 -120.28,-204.25 -327.96,-398.46 -393.9,-605.61 669.6,-314.82 775.98,-482.69 1394.75,-965.51 281.33,-219.53 1175.46,-862.9 1335.25,-1096.75l-62.32 -255.86c-208.86,1.13 -2078.39,992.42 -2542.28,1221.76 -519.63,256.88 -376.5,163.78 -702.79,594z"/>
   <path class="fil1" d="M14510.65 13338.05c402.02,-209.59 475.2,-155.82 867.14,-482.31l1471.18 -1160.2c305.51,-224.34 653.98,-358.65 490.62,-730.18 -218.99,-14.43 -2049.02,966.1 -2517,1201.63 -470.11,236.61 -378.56,146.76 -697.41,554.31l-782.38 -556.08 -766.57 789.82 415.05 594.94c-118.74,89.32 -296.11,131.98 -427.61,216.67l-1839.24 1449.8c-249.79,195.42 -653.7,349.72 -379.28,681.71 111.79,-14.76 1475.75,-706.17 1690.1,-816.58 280.71,-144.57 563.36,-284.24 845.1,-426.43 416.59,-210.24 430.99,-153.02 655.81,-569.08 637.75,-14.77 852.58,-67.29 974.49,-748.02z"/>
   <path class="fil1" d="M12991 4179.54l-410.87 605.6 765.59 779.1 792.63 -546.45c224.33,404.55 306.77,355.76 701.99,557.64 438.11,223.79 2293.25,1215 2493.76,1206.19 201.75,-358.53 -213.1,-510.99 -476.33,-726.8l-1466.2 -1163.22c-403.03,-300.23 -428.8,-286.41 -880.75,-483.16 -112.68,-670.4 -356.9,-731.26 -963.36,-748.23 -301.22,-403.33 -177.66,-320.22 -658.12,-564.91 -461.08,-234.83 -2342.49,-1235.61 -2562.63,-1247.13 -219.32,350.54 166.95,495.19 402.04,689.44l1448.16 1138.88c342.42,283.59 432.8,306.77 814.09,503.05z"/>
  </g>
 </g>
</svg>
