<?xml version="1.0" encoding="UTF-8"?>
<!DOCTYPE svg PUBLIC "-//W3C//DTD SVG 1.1//EN" "http://www.w3.org/Graphics/SVG/1.1/DTD/svg11.dtd">
<!-- Creator: CorelDRAW 2020 (64-Bit) -->
<svg xmlns="http://www.w3.org/2000/svg" xml:space="preserve" width="184.71mm" height="184.71mm" version="1.1" style="shape-rendering:geometricPrecision; text-rendering:geometricPrecision; image-rendering:optimizeQuality; fill-rule:evenodd; clip-rule:evenodd"
viewBox="0 0 18471 18471"
 xmlns:xlink="http://www.w3.org/1999/xlink"
 xmlns:xodm="http://www.corel.com/coreldraw/odm/2003">
 <defs>
  <style type="text/css">
   <![CDATA[
    .fil1 {fill:#1EB980}
    .fil0 {fill:#1EB980;fill-rule:nonzero}
   ]]>
  </style>
 </defs>
 <g id="Layer_x0020_1">
  <metadata id="CorelCorpID_0Corel-Layer"/>
  <path class="fil0" d="M18116.13 12828.89l-17766.24 0c-70.13,0 -116.88,-45.08 -116.88,-112.68 0,-67.6 46.76,-112.67 116.88,-112.67l17766.24 -0.01c70.14,0 116.88,45.07 116.88,112.67 0,67.6 -46.74,112.69 -116.88,112.69z"/>
  <g id="front">
   <path class="fil1" d="M11810.5 10297.17c-1129,-283.46 -1065.13,-390.76 -1490.81,1.08 -153.58,-96.46 -161.97,-183.47 -360.32,-202.41l-1572.27 2.56 -279.68 196.48c-316.76,-237.34 -193.9,-328.67 -705.9,-197.42 -260.47,66.84 -520.94,136.93 -782.62,200.39 -423.51,102.84 -1226.56,365.87 -1610.83,396.46 -13.66,-363.31 -33.15,-204.19 -163.86,-480.35l1056.62 -651.91c36.94,-21.37 41.54,-22.47 88.35,-49.93 29.5,-34.77 1005.06,-552.32 1136.31,-712.66l-706.84 -446.79 49.52 242.75 -200.93 47.08c-109.47,-162.36 -640.82,-1743.7 -789.52,-2149.22 -74.01,-201.46 -256.54,-522.01 -189.15,-722.4 232.85,-111.09 235.97,128.14 304.03,318.38l558.14 1548.31c80.1,210.55 523.5,587.51 744.46,670.18 931.18,348.42 764.62,113.39 1024.14,74.7 17.59,-8.66 19.89,-9.34 30.17,-13.4 193.22,-95.79 2370.04,-103.52 2553.92,2.84l37.89 6.22c262.49,79.84 144.78,179.96 488.05,83.9 171.98,-48.17 367.63,-97.29 532.58,-160.07 199.3,-75.77 649.06,-459.37 727.26,-650.02 125.44,-306.07 255.33,-698.99 362.76,-1016.97 57.38,-169.8 124.76,-337.05 183.08,-506.99 69.68,-202.82 83.75,-430.82 310.39,-362.49 103.65,193.62 -354.09,1199.09 -445.16,1460.77 -82.67,237.34 -425.94,1295.84 -538.12,1417.21 -120.01,-0.95 -93.09,7.57 -192.27,-80.23l47.49 -211.63 -697.64 463.42c148.29,169.28 2055.85,1199.64 2276.54,1414.78 -129.89,251.41 -152.63,118.81 -161.42,461.13 -350.04,-25.98 -1230.48,-294.83 -1624.36,-393.75z"/>
   <path class="fil1" d="M11496.55 11435.38c127.44,-80.83 74.86,-49.71 350.76,-65.12l1803.22 -111.83c219,-13.37 410.27,60.52 628.9,96.4 170.15,-181.35 146.5,39.02 169.4,-231.04 -152.31,-84.05 -247.78,-27.69 -239.32,-258.81l665.08 -14.64c16.14,246.12 -19.52,205.34 -218.39,248.35l-0.62 164.19c283.12,52.88 405.85,-179.69 786.56,-142.83l2432.5 210.26c142.19,7.85 134.05,-8 234.75,53.88 -189.51,88.17 -1986.68,89.91 -2449.85,100.67 -284.14,6.61 -571.17,-27.67 -833.22,-21.55 -118.32,2.77 -235.8,22.85 -365.98,15.88 -157.86,-8.45 -199.89,-37.93 -398.73,-33.35l-2565.06 -10.46z"/>
   <path class="fil1" d="M332.85 11384.19c106.26,-75.57 2113.36,-199.32 2613.65,-257.17 443.01,-51.24 526.56,174.04 834.23,143.12l13.28 -146.6c-143.59,-91.94 -237.4,-24.52 -228.14,-259.9l663.42 -10.17c15.29,278.52 -85.99,170.12 -233.87,270.44 14.4,217.68 -6.65,96.5 187.36,229.65 677.97,-141.53 600.37,-98.36 1343.59,-44.73l1015.99 58.48c177.51,9.64 271.91,-5.96 387.84,68.63 -1413.5,18.74 -6341.63,88.26 -6597.35,-51.75z"/>
   <path class="fil1" d="M13536.21 10711.06c-25.63,-243.97 15.43,-259.13 159.01,-435.12l932.1 1.41 121.44 -136.6 291.7 -4.86 198.86 337.03c-259.72,430.75 -247.79,87.64 -403.1,354.49 -1098.92,-13.95 -294.17,-116.42 -883.36,-108.64 -138.3,1.83 -280.26,7.39 -416.65,-7.71z"/>
   <path class="fil1" d="M3205.13 10476.09l197.02 -349.64 277.47 4.38 140.13 148.75 951.43 -2.65c111.24,181.81 171.96,203.68 127.41,440.5 -165.89,5.29 -336.58,-5.23 -500.73,-1.27 -294.41,7.12 -95.02,16.1 -196.26,73.6l-124.12 35.69c-263.73,20.9 -393.86,18.88 -533.55,-73.34l-47.77 -29.99c-133.08,-72.41 -205.82,-102.88 -291.03,-246.03z"/>
   <path class="fil1" d="M8175.82 10324.78c198.9,-139.72 158.23,-172.66 436.97,-171.11l1237.32 -0.53c215.5,0.57 291.59,39.53 423.21,209.57 -216.02,232.64 -1157.73,138.36 -1660.14,139.86 -230.67,0.69 -334.6,37.28 -437.36,-177.79z"/>
  </g>
 </g>
</svg>
