<?xml version="1.0" encoding="UTF-8"?>
<!DOCTYPE svg PUBLIC "-//W3C//DTD SVG 1.1//EN" "http://www.w3.org/Graphics/SVG/1.1/DTD/svg11.dtd">
<!-- Creator: CorelDRAW 2020 (64-Bit) -->
<svg xmlns="http://www.w3.org/2000/svg" xml:space="preserve" width="184.71mm" height="184.71mm" version="1.1" style="shape-rendering:geometricPrecision; text-rendering:geometricPrecision; image-rendering:optimizeQuality; fill-rule:evenodd; clip-rule:evenodd"
viewBox="0 0 18471 18471"
 xmlns:xlink="http://www.w3.org/1999/xlink"
 xmlns:xodm="http://www.corel.com/coreldraw/odm/2003">
 <defs>
  <style type="text/css">
   <![CDATA[
    .fil0 {fill:#1EB980}
   ]]>
  </style>
 </defs>
 <g id="Layer_x0020_1">
  <metadata id="CorelCorpID_0Corel-Layer"/>
  <path class="fil0" d="M4863.29 9357.94l0 524.71c-144.39,-84.94 -270.32,-183.81 -306.1,-293.66 43.32,-84.63 162.95,-162.13 306.1,-231.05z"/>
  <path class="fil0" d="M7334.83 13039.64l600.99 47.3c-364.67,491.56 -607.77,726.7 -600.93,4.32l-0.06 -51.62z"/>
  <path class="fil0" d="M10981.32 12433.92l-1381.64 60.07c-346.74,-203.39 -675.51,-399.81 -862.14,-465.93 -102.93,118.26 -203.88,245.52 -301.47,374.27l-1102.08 -140.69 -1.12 -1033.8c13.08,-222.33 135.14,-254.47 237.41,-369.07 679.71,-761.55 1499.75,-1391.33 2157.56,-2140.36 202.12,-230.15 1115.89,-1008.7 1232.99,-1231.39l-3178.35 2121.66c-207.76,140.95 -1409.75,1017.57 -1589.08,976.07 -85.39,-19.76 -371.77,-183.59 -599.85,-315.6l0 -1204.03c302.82,-130.21 591.75,-244.37 907.45,-382.83l4979.35 -2111.05c221.35,-92.05 779.22,-399.06 1006.74,-332.95 74.55,257.95 -1041.3,4324.77 -1248.6,5141.03 -70.94,279.31 -162.06,688.27 -257.17,1054.6z"/>
  <path class="fil0" d="M4878.44 11871.54l88.86 513.41c-925.32,-362.89 -1547.75,-868.74 -1615.84,-1516.38 -51.91,-493.68 218.3,-1069.75 922,-1727.68l70.24 -438.38c-1167.08,848.64 -1382.22,1576.99 -992.24,2166.06 265.31,400.78 810.71,737.09 1526.98,1002.97z"/>
  <path class="fil0" d="M5824.39 12159.24l121.81 531.56c3639.32,900.57 9734.23,215.45 9032.83,-2098.71 -168.79,-556.88 -731.18,-1208.12 -1816.1,-1954.3 0,0 0,0 0,0l0.65 -1.63 151.63 -381.69c1209.56,940.81 1692.09,1716.09 1663.82,2337.62 -92.9,2042.61 -5702.33,2425.1 -9154.64,1567.15zm7241.24 -3274.4l97.3 -247.05 0.65 -1.63 147.23 -373.81c-0.98,-0.82 -1.95,-1.62 -2.91,-2.43l33.33 -74.82 0 -0.03 0 0.03 0 -0.03 298.23 -669.37c-521.04,287.15 -814.1,472.8 -1090.97,601.33l216.94 1434.04 300.2 -666.23z"/>
  <path class="fil0" d="M9167.56 5453.77l624.37 -240.35c0.81,0.98 1.6,1.96 2.4,2.93l75.08 -32.75 0.03 -0.02 -0.03 0.02 0.03 -0.02 671.66 -293.02c-291.18,518.8 -479.09,810.42 -609.76,1086.28l-1432.32 -228.03 668.54 -295.04zm235.59 8845.73l-559.67 -55.8c-5662.48,6197.56 -4897.24,-17515.28 571.87,-8885.31l384.49 -149.31c-5363.23,-7910.46 -6142.28,15178.51 -396.69,9090.42z"/>
 </g>
</svg>
