<?xml version="1.0" encoding="UTF-8"?>
<!DOCTYPE svg PUBLIC "-//W3C//DTD SVG 1.1//EN" "http://www.w3.org/Graphics/SVG/1.1/DTD/svg11.dtd">
<!-- Creator: CorelDRAW 2020 (64-Bit) -->
<svg xmlns="http://www.w3.org/2000/svg" xml:space="preserve" width="162.585mm" height="162.585mm" version="1.1" style="shape-rendering:geometricPrecision; text-rendering:geometricPrecision; image-rendering:optimizeQuality; fill-rule:evenodd; clip-rule:evenodd"
viewBox="0 0 16258.54 16258.54"
 xmlns:xlink="http://www.w3.org/1999/xlink"
 xmlns:xodm="http://www.corel.com/coreldraw/odm/2003">
 <defs>
  <style type="text/css">
   <![CDATA[
    .fil1 {fill:#00A2FF}
    .fil0 {fill:#A3A3A4}
    .fil2 {fill:red}
   ]]>
  </style>
 </defs>
 <g id="Layer_x0020_1">
  <metadata id="CorelCorpID_0Corel-Layer"/>
  <path class="fil0" d="M8126.16 3635.16l0.05 8930.84c95.39,-8.59 129.27,-96.13 129.61,-94.99l39.01 -459.18c67.51,-96.77 128.17,-161.6 186.83,-222.89l1753.02 -216.5 2.74 -684.02 -1804.07 163.74c0.96,-314.84 0.22,-2480.7 70.86,-2550.15l7447.1 -319.66c75.25,-224.2 55.91,-405.93 14.08,-640.39l-7452.02 -315.69c-129.33,-774.16 739.62,-3545.78 -376.59,-3590.82 -2.79,-0.12 -7.85,-0.21 -10.62,-0.29zm0 0l-0.05 8930.84c-95.39,-8.59 -129.27,-96.13 -129.61,-94.99l-39.01 -459.18c-67.51,-96.77 -128.17,-161.6 -186.83,-222.89l-1753.02 -216.5 -2.74 -684.02 1804.07 163.74c-0.96,-314.84 -0.22,-2480.7 -70.86,-2550.15l-7447.1 -319.66c-75.25,-224.2 -55.91,-405.93 -14.08,-640.39l7452.02 -315.69c129.33,-774.16 -739.62,-3545.78 376.59,-3590.82 2.79,-0.12 7.85,-0.21 10.62,-0.29z"/>
  <polygon class="fil1" points="10041.23,8041.26 14049.35,8024.13 14048.67,8264.01 10040.54,8436.05 "/>
  <polygon class="fil2" points="8713.81,11565.79 9944.77,11413.6 9944.87,11608.23 8713.91,11760.25 "/>
  <polygon class="fil2" points="6211.09,8041.26 2202.97,8024.13 2203.65,8264.01 6211.78,8436.05 "/>
  <polygon class="fil1" points="7538.51,11565.79 6307.55,11413.6 6307.45,11608.23 7538.41,11760.25 "/>
 </g>
</svg>
