<?xml version="1.0" encoding="UTF-8"?>
<!DOCTYPE svg PUBLIC "-//W3C//DTD SVG 1.1//EN" "http://www.w3.org/Graphics/SVG/1.1/DTD/svg11.dtd">
<!-- Creator: CorelDRAW 2020 (64-Bit) -->
<svg xmlns="http://www.w3.org/2000/svg" xml:space="preserve" width="162.585mm" height="162.585mm" version="1.1" style="shape-rendering:geometricPrecision; text-rendering:geometricPrecision; image-rendering:optimizeQuality; fill-rule:evenodd; clip-rule:evenodd"
viewBox="0 0 16258.54 16258.54"
 xmlns:xlink="http://www.w3.org/1999/xlink"
 xmlns:xodm="http://www.corel.com/coreldraw/odm/2003">
 <defs>
  <style type="text/css">
   <![CDATA[
    .str0 {stroke:#00A2FF;stroke-width:7.6;stroke-miterlimit:22.9256}
    .str1 {stroke:red;stroke-width:7.6;stroke-miterlimit:22.9256}
    .fil5 {fill:none}
    .fil4 {fill:#00A2FF}
    .fil0 {fill:#40ECFF}
    .fil2 {fill:#A3A3A4}
    .fil1 {fill:#C0F9FF}
    .fil3 {fill:#FE0000}
    .fil6 {fill:red}
   ]]>
  </style>
   <clipPath id="id0">
    <path d="M0.24 16258.31l16258.07 0 0 -16258.07 -16258.07 0 0 16258.07z"/>
   </clipPath>
 </defs>
 <g id="Layer_x0020_1">
  <metadata id="CorelCorpID_0Corel-Layer"/>
  <g id="_2042176442848">
   <polygon class="fil0" points="8106.45,4967.92 8106.29,9262.23 10710.72,11312.34 "/>
   <polygon class="fil1" points="8106.29,9262.23 8106.45,4967.92 5501.86,11312.34 "/>
  </g>
  <g>
  </g>
  <g style="clip-path:url(#id0)">
   <g>
    <path class="fil2" d="M8050.16 7388.16c-19.05,31 -225.38,81.78 -277.13,110.05 -120.28,65.7 -137.9,112.34 -217.48,185.55 -18.25,-2 30.32,49.38 -41.7,-17.13 46.63,191.04 -117.33,157.93 -275.67,167.76 -140.21,8.72 -293.98,16.62 -434.31,26.03 -728.92,48.86 -1952.09,144.19 -2595.7,151.93l-0.74 231.46 3272.65 195.53c71.32,148.33 77.94,59.9 -87.48,390.73l-564.06 1127.28c-126.38,252.16 -688.05,1341.86 -747.41,1506.17 93.74,41.11 140.6,73.3 210.8,110.7l20.42 21.14 20.93 21.57 17.49 24.8 15.6 27.49 16.11 22.97 -16.11 -22.97 -15.6 -27.49 -17.49 -24.8 -20.93 -21.57 -20.42 -21.14c12.73,-116.71 1319.21,-1997.59 1575.23,-2417.39 92.97,-152.45 174.63,-312.94 272.36,-308.31 92.97,4.41 111.44,83.51 153.16,153.67 38.03,63.97 75.26,120.41 115.57,180.26l455.66 685.55c250.08,372.38 966.59,1428.73 1127.92,1715.07l-13.25 23.51 -21.73 20.51 -20.18 22.11 -18.38 23.9 -18.64 15.68 18.64 -15.68 18.38 -23.9 20.18 -22.11 21.73 -20.51 13.25 -23.51c78.21,-36.87 129.05,-75.23 229.36,-113.25 -73.34,-42.83 -79.92,-94.3 -126.96,-189.19l-1233.1 -2467.04c-129.83,-258.95 -166.47,-254.37 -66.04,-377.88l3260.53 -193.91 -2.09 -228.5 -3264.18 -193.11c-33.34,-57.15 -60.47,-72.28 -39.08,-144.65 -110.46,61.99 -90.63,-211.85 -545.4,-263.17l35.36 -84.66c-63.97,69.66 -81.56,102.76 -190.07,60.45z"/>
    <path class="fil3" d="M7513.85 7666.63c72.02,66.51 23.45,15.13 41.7,17.13 79.58,-73.21 97.2,-119.85 217.48,-185.55 51.75,-28.27 258.08,-79.05 277.13,-110.05 -71.23,-151.3 -330.34,-508.04 -443.67,-681.16 -146.61,-223.95 -286.67,-453.27 -443.83,-676.65 -57.04,-81.07 -852.33,-1272.63 -881.82,-1357.77 579.09,-533.04 -74.08,-1438.5 -740.26,-1055.75 -412.98,237.28 -453.22,857.49 14.37,1124.92 175.02,100.1 309.66,79.04 512.99,54.34l1445.91 2870.54z"/>
    <path class="fil3" d="M8240.23 7327.71l-35.36 84.66c454.77,51.32 434.94,325.16 545.4,263.17 95.03,-232.5 243.06,-492.05 358.82,-722.88 122.58,-244.41 236.81,-472.81 359.63,-718.67 110.69,-221.57 684.7,-1303.02 708.4,-1448.16l-184.92 -93.9 -1751.97 2635.78z"/>
    <path class="fil3" d="M6382.48 11692.19l-16.11 -22.97 -15.6 -27.49 -17.49 -24.8 -20.93 -21.57 -20.42 -21.14c-70.2,-37.4 -117.06,-69.59 -210.8,-110.7 -742.47,-272.73 -1166.88,727.83 -624.15,1113.62 572.28,406.79 1313.28,-190.38 925.5,-884.95z"/>
    <path class="fil3" d="M12053.53 8013.3l2.09 228.5c58.28,304.25 335.93,561.36 708.85,521.28 313.47,-33.69 571.6,-298.37 569.16,-643.43 -5.37,-758.54 -1117.18,-889.93 -1280.1,-106.35z"/>
    <path class="fil4" d="M9992.2 4691.93l184.92 93.9c241.5,118.14 639.17,1.02 799.35,-321.26 177.95,-358.01 -21.9,-709.42 -261.06,-845.52 -658.07,-374.5 -1323.36,529.25 -723.21,1072.88z"/>
    <path class="fil4" d="M4207.43 8243.81l0.74 -231.46c-61.93,-298.01 -316.05,-546.12 -676.02,-525.82 -329.03,18.55 -598.98,289.38 -603.36,631.94 -9.87,771.78 1118.68,902.99 1278.64,125.34z"/>
    <path class="fil4" d="M10221.19 11469.82c-100.31,38.02 -151.15,76.38 -229.36,113.25l-13.25 23.51 -21.73 20.51 -20.18 22.11 -18.38 23.9 -18.64 15.68c-80.08,152.89 -149.7,231.25 -128.14,463.32 43.83,471.8 625.32,753.78 1017.28,454.92 561.76,-428.34 163.14,-1331.14 -567.6,-1137.2z"/>
   </g>
  </g>
  <polygon class="fil5" points="0.24,16258.31 16258.31,16258.31 16258.31,0.24 0.24,0.24 "/>
  <g id="_1621080631856">
   <g id="_2041993539264">
    <g id="_2326345964144">
     <path class="fil5 str0" d="M4634.57 7993.19c-73.5,-621.93 -637.21,-1066.03 -1258.65,-992.58 -621.93,73.5 -1066.03,637.2 -992.58,1258.64 73.5,621.94 637.21,1066.04 1258.65,992.59"/>
     <polygon id="_1_0" class="fil4" points="4092.29,9199.12 3609.15,9024.95 3663.06,9481.13 "/>
    </g>
   </g>
   <g id="_2041993541088">
    <g id="_2326345961600">
     <path class="fil5 str1" d="M11524.97 8047.28c69.46,-625.96 633.2,-1077.09 1259.16,-1007.63 625.95,69.45 1077.08,633.2 1007.62,1259.15 -69.45,625.96 -633.2,1077.09 -1259.15,1007.63"/>
     <polygon id="_1_0_1" class="fil6" points="12079.44,9256.15 12512.6,9536.6 12563.55,9077.47 "/>
    </g>
   </g>
   <g id="_2041993539024">
    <g id="_2326345959344">
     <path class="fil5 str1" d="M6443.83 11153.72c510.23,369.21 624.55,1082.13 255.34,1592.36 -369.21,510.22 -1082.13,624.54 -1592.35,255.33 -510.23,-369.21 -624.55,-1082.13 -255.34,-1592.35"/>
     <polygon id="_1_1" class="fil6" points="5118.77,11039.68 4661.13,11278.12 5035.37,11548.93 "/>
    </g>
   </g>
   <g id="_2041989949376">
    <g id="_2326345956080">
     <path class="fil5 str1" d="M6269.99 5222.53c-585.95,230.89 -1248.12,-56.94 -1479.01,-642.89 -230.88,-585.95 56.95,-1248.12 642.9,-1479.01 585.95,-230.89 1248.12,56.95 1479.01,642.89"/>
     <polygon id="_1_2" class="fil6" points="7080.04,4167.72 7125.76,3653.72 6695.97,3823.07 "/>
    </g>
   </g>
   <g id="_2041989936416">
    <g id="_2326345955888">
     <path class="fil5 str0" d="M9659.31 11208.2c-506.96,367.7 -619.45,1076.45 -252.04,1583.01 367.69,506.95 1076.45,619.44 1583,252.04 506.96,-367.69 619.45,-1076.45 252.04,-1583"/>
     <polygon id="_1_3" class="fil4" points="10976.53,11092.95 11060.3,11599.65 11432.15,11329.95 "/>
    </g>
   </g>
   <g id="_2041989937664">
    <g id="_2326345951376">
     <path class="fil5 str0" d="M9957.42 5289.18c578.83,239.1 1241.42,-36.49 1480.33,-614.86 239.1,-578.82 -36.5,-1241.42 -614.86,-1480.33 -578.83,-239.09 -1241.42,36.5 -1480.33,614.87"/>
     <polygon id="_1_4" class="fil4" points="9169.01,4227.71 9556.66,3890.83 9132.1,3715.45 "/>
    </g>
   </g>
  </g>
 </g>
</svg>
