<?xml version="1.0" encoding="UTF-8"?>
<!DOCTYPE svg PUBLIC "-//W3C//DTD SVG 1.1//EN" "http://www.w3.org/Graphics/SVG/1.1/DTD/svg11.dtd">
<!-- Creator: CorelDRAW 2020 (64-Bit) -->
<svg xmlns="http://www.w3.org/2000/svg" xml:space="preserve" width="162.585mm" height="162.585mm" version="1.1" style="shape-rendering:geometricPrecision; text-rendering:geometricPrecision; image-rendering:optimizeQuality; fill-rule:evenodd; clip-rule:evenodd"
viewBox="0 0 16258.54 16258.54"
 xmlns:xlink="http://www.w3.org/1999/xlink"
 xmlns:xodm="http://www.corel.com/coreldraw/odm/2003">
 <defs>
  <style type="text/css">
   <![CDATA[
    .str0 {stroke:#00A2FF;stroke-width:7.6;stroke-miterlimit:22.9256}
    .str1 {stroke:red;stroke-width:7.6;stroke-miterlimit:22.9256}
    .fil5 {fill:none}
    .fil4 {fill:#00A2FF}
    .fil0 {fill:#40ECFF}
    .fil2 {fill:#A3A3A4}
    .fil1 {fill:#C0F9FF}
    .fil3 {fill:#FE0000}
    .fil6 {fill:red}
   ]]>
  </style>
   <clipPath id="id0">
    <path d="M0.24 16258.31l16258.07 0 0 -16258.07 -16258.07 0 0 16258.07z"/>
   </clipPath>
 </defs>
 <g id="Layer_x0020_1">
  <metadata id="CorelCorpID_0Corel-Layer"/>
  <g id="_2041561527168">
   <polygon class="fil0" points="8106.45,4967.92 8106.29,9262.23 10710.72,11312.34 "/>
   <polygon class="fil1" points="8106.29,9262.23 8106.45,4967.92 5501.86,11312.34 "/>
  </g>
  <g>
  </g>
  <g style="clip-path:url(#id0)">
   <g>
    <path class="fil2" d="M4685.43 6260.62c3.73,3.82 9,8.8 11.58,11.05l686.67 459.17c220.47,153.4 467.15,308.93 691,451.11l1205.13 802.99c275.05,171.78 81.35,236.28 -193.67,412.23l-1031.19 681.35c-236.78,147.89 -459.18,310.16 -687.19,454.34 -131.59,83.22 -591.98,409.72 -694.8,446.08 21.37,40.63 91.12,168.11 126.1,221.13 49.3,-74.48 1315.15,-675.92 1501.92,-770.2l1141.61 -570.99c267.82,-135.31 244.68,-162.96 378.61,-76.8l198.36 3275.17 -50.57 32.44 279.59 -18.69 45.86 16.97 -45.86 -16.97 191.61 -3293.46c145.46,-74.13 126.64,-44.99 390.86,87.43 131.57,65.93 249.13,124.6 380.28,190.55 326.47,164.15 2208.24,1081 2248.26,1144.75 35.14,-53.39 104.91,-180.8 126.14,-221.49 -106.21,-36.82 -569.45,-365.94 -709.53,-452.86 -529.14,-328.31 -1184.61,-787.61 -1716.14,-1137.6 -165.51,-108.98 -315.52,-159.44 -307.72,-268.74 6.49,-91.05 -3.21,-46.16 59.66,-95.76l2661.55 -1764.07c-18.78,-32.64 -101.22,-181.73 -118.9,-201.91 -33.33,57.1 -1333.36,683.29 -1500.91,767.13l-1141.52 570.89c-262.77,131.81 -237.86,160.53 -377.38,69.84 -296.58,-96.14 -325.65,-70.69 -618.37,-0.87 -80.68,73.28 -88.51,73.72 -186.66,23.82l-563.53 -283.61c-245.43,-122.48 -2221.78,-1081.94 -2263.93,-1149.46 -20.1,27.19 -94.21,165.96 -116.92,205.04z"/>
    <path class="fil3" d="M7816.47 7464.83c292.72,-69.82 321.79,-95.27 618.37,0.87l-195.79 -3255.84 -218.9 2.49 -203.68 3252.48z"/>
    <path class="fil3" d="M4685.43 6260.62c22.71,-39.08 96.82,-177.85 116.92,-205.04 20.95,-211.04 46.62,-319.22 -54.6,-506.51 -257.82,-477.06 -884.05,-435.88 -1130.81,-8.58 -363.84,630.04 485.04,1326.36 1068.49,720.13z"/>
    <path class="fil4" d="M8020.15 4212.35l218.9 -2.49c784.63,-186.92 637.57,-1283.56 -120.37,-1278.74 -747.99,4.76 -910.24,1109.8 -98.53,1281.23z"/>
    <path class="fil3" d="M11454.65 6057.84c17.68,20.18 100.12,169.27 118.9,201.91 195.32,185.11 498.5,347.78 843.07,131.26 652.56,-410.08 146.5,-1446.76 -588.49,-1137.75 -312.67,131.45 -422.55,386.57 -373.48,804.58z"/>
    <path class="fil4" d="M11585.73 9978.78c-21.23,40.69 -91,168.1 -126.14,221.49 -156.86,918.66 868.59,1091.72 1181.65,517.27 259.77,-476.69 -137.75,-1034.15 -672.99,-945.74 -181.37,29.96 -287.51,120.22 -382.52,206.98z"/>
    <path class="fil4" d="M4799.06 10200.07c-34.98,-53.02 -104.73,-180.5 -126.1,-221.13 -627.89,-587.05 -1405.69,134.61 -1047.94,751.98 324.47,559.94 1328.15,379.28 1174.04,-530.85z"/>
    <path class="fil3" d="M7968.99 12089.69c-678.2,173.63 -565,1220.45 170.96,1212.2 692.03,-7.75 861.04,-994.71 154.49,-1213.92l-45.86 -16.97 -279.59 18.69z"/>
   </g>
  </g>
  <polygon class="fil5" points="0.24,16258.31 16258.31,16258.31 16258.31,0.24 0.24,0.24 "/>
  <g id="_1621086401264">
   <g id="_2040292659184">
    <path class="fil5 str0" d="M5035.11 9755.3c-379.26,-498.36 -1090.42,-594.52 -1588.38,-215.56 -498.37,379.27 -594.52,1090.42 -215.56,1588.39 379.26,498.36 1090.42,594.51 1588.38,215.55"/>
    <polygon id="_1_0" class="fil4" points="5180.64,11069.51 4676,11164.93 4954.19,11530.47 "/>
   </g>
  </g>
  <g id="_1621086460784">
   <g id="_2040292647520">
    <path class="fil5 str1" d="M10997.63 6301.48c-258.17,-574.45 -1.77,-1249.42 572.68,-1507.59 574.46,-258.16 1249.42,-1.76 1507.59,572.69 258.17,574.45 1.77,1249.42 -572.68,1507.58"/>
    <polygon id="_1_0_1" class="fil6" points="12089.34,7061.06 12604.92,7082.58 12415.56,6661.23 "/>
   </g>
  </g>
  <g id="_1621086457616">
   <g id="_2040292710928">
    <path class="fil5 str1" d="M8199.11 11558.5c627.04,58.81 1087.68,614.81 1028.86,1241.86 -58.81,627.04 -614.81,1087.68 -1241.86,1028.86 -627.04,-58.81 -1087.68,-614.81 -1028.86,-1241.86"/>
    <polygon id="_1_1" class="fil6" points="6999.83,12133.42 6726.76,12571.28 7186.7,12614.42 "/>
   </g>
  </g>
  <g id="_1621086454592">
   <g id="_2040292700944">
    <path class="fil5 str1" d="M5036.25 6537.98c-387.41,496.54 -1104,585.01 -1600.54,197.6 -496.55,-387.42 -585.01,-1104 -197.6,-1600.55 387.41,-496.54 1104,-585.01 1600.54,-197.59"/>
    <polygon id="_1_2" class="fil6" points="5198.12,5217.9 4976.39,4751.94 4692.23,5116.15 "/>
   </g>
  </g>
  <g id="_1621086456704">
   <g id="_2040292695280">
    <path class="fil5 str0" d="M10996.43 9971.92c-249.87,574.26 13.29,1241.89 587.09,1491.56 574.25,249.88 1241.88,-13.29 1491.56,-587.08 249.87,-574.26 -13.29,-1241.89 -587.09,-1491.56"/>
    <polygon id="_1_3" class="fil4" points="12072.46,9203.48 12402.04,9597.37 12585.32,9176.16 "/>
   </g>
  </g>
  <g id="_1621086454688">
   <g id="_2040292676560">
    <path class="fil5 str0" d="M8246.28 4722.13c620.03,-88.11 1050.75,-662.1 962.72,-1281.64 -88.11,-620.03 -662.1,-1050.75 -1281.64,-962.72 -620.03,88.11 -1050.75,662.1 -962.72,1281.64"/>
    <polygon id="_1_4" class="fil4" points="7027.93,4208.35 7190.7,3721.25 6735.91,3785.87 "/>
   </g>
  </g>
 </g>
</svg>
