<?xml version="1.0" encoding="UTF-8"?>
<!DOCTYPE svg PUBLIC "-//W3C//DTD SVG 1.1//EN" "http://www.w3.org/Graphics/SVG/1.1/DTD/svg11.dtd">
<!-- Creator: CorelDRAW 2020 (64-Bit) -->
<svg xmlns="http://www.w3.org/2000/svg" xml:space="preserve" width="162.585mm" height="162.585mm" version="1.1" style="shape-rendering:geometricPrecision; text-rendering:geometricPrecision; image-rendering:optimizeQuality; fill-rule:evenodd; clip-rule:evenodd"
viewBox="0 0 16258.54 16258.54"
 xmlns:xlink="http://www.w3.org/1999/xlink"
 xmlns:xodm="http://www.corel.com/coreldraw/odm/2003">
 <defs>
  <style type="text/css">
   <![CDATA[
    .str0 {stroke:#00A2FF;stroke-width:7.6;stroke-miterlimit:22.9256}
    .str1 {stroke:red;stroke-width:7.6;stroke-miterlimit:22.9256}
    .fil5 {fill:none}
    .fil4 {fill:#00A2FF}
    .fil0 {fill:#40ECFF}
    .fil2 {fill:#A3A3A4}
    .fil1 {fill:#C0F9FF}
    .fil3 {fill:#FE0000}
    .fil6 {fill:red}
   ]]>
  </style>
   <clipPath id="id0">
    <path d="M-81.73 16176.33l16258.07 0 0 -16258.07 -16258.07 0 0 16258.07z"/>
   </clipPath>
 </defs>
 <g id="Layer_x0020_1">
  <metadata id="CorelCorpID_0Corel-Layer"/>
  <g id="_2041993773280">
   <polygon class="fil0" points="8106.45,4967.92 8106.29,9262.23 10710.72,11312.34 "/>
   <polygon class="fil1" points="8106.29,9262.23 8106.45,4967.92 5501.86,11312.34 "/>
  </g>
  <g>
  </g>
  <g style="clip-path:url(#id0)">
   <g>
    <path class="fil2" d="M4341.08 6702.02l59.25 -41.27c229.89,96.44 480.45,232.9 713.96,344.95l1777.54 865.15c82.04,42.86 293.48,120.91 350,193.21 -244.85,71.03 -2699.58,1342.79 -2866.36,1369.75l-20.01 -18.79 20.01 18.79c55.52,102.82 62.34,144.46 103.96,256.83 34.44,-77.11 -38.98,-15.39 69.77,-67.54l1415.26 -487.44c329.47,-110.03 1262.81,-458.36 1518.63,-513.22l-1039.13 3007.73c83.5,19.55 153.28,59.52 218.56,86.28 27.49,-131.23 270.38,-578.61 345.03,-734.17l955.61 -1961.9c13.41,-27.5 25.93,-60.77 39.56,-86.44 4.94,-9.3 17.42,-30.65 25.18,-41.38 27.36,-37.82 4.07,-11.07 35.17,-37.66 51.08,159.66 883.05,1824.43 1033.31,2139.01 68.04,142.43 314.89,605.63 339.71,727.99l-23.77 14.96 -29.17 13.09 -25.74 17.6 -22.86 19.41 -20.22 22.09 -18.17 24.87 -17.27 21.52 17.27 -21.52 18.17 -24.87 20.22 -22.09 22.86 -19.41 25.74 -17.6 29.17 -13.09 23.77 -14.96c104.36,-58.74 140.42,-67.3 259.13,-104.31 -76.2,-32.36 -29.12,17.09 -72.56,-72l-749.31 -2168.68c-74.77,-216.68 -205.91,-536.75 -251.14,-764.3l3008.18 1039.24c21.29,-84.32 56.23,-151.71 93.1,-216.47l16.03 -21.34 14.72 -27.5 17.83 -24.64 19.61 -22.68 21.51 -20.76 23.67 -18.76 25.62 -16.69 27.36 -14.92 20.45 -16.56 -20.45 16.56 -27.36 14.92 -25.62 16.69 -23.67 18.76 -21.51 20.76 -19.61 22.68 -17.83 24.64 -14.72 27.5 -16.03 21.34c-137.16,-29.13 -574.92,-267.05 -728,-340.39 -308.11,-147.61 -1983.41,-984.45 -2139.51,-1032.62 31.03,-37.15 -13.93,-1.35 49.92,-44.23l296.51 -147.59c760.35,-364.49 1804.45,-906.7 2491.86,-1207.75 43.15,23.16 19.68,2.51 61.98,43.55 -85.31,-142.06 -85.43,-134.27 -138.06,-308.09 -26.7,94.15 40.9,22.1 -70.58,76.86l-284.95 94.77c-759,262.34 -1978.5,652.94 -2622.25,909.79l-11.08 -30.21 -41.02 100.48c-101.83,-51.64 -231.27,-235.43 -571.22,-224.01 -409.63,13.75 -417.12,300.82 -548.64,118.52 -35.42,23.28 37.46,38.2 -90.7,7.31l-2544.77 -883.92c-67.16,-23.41 -124.88,-43.55 -188.74,-64.14 -217.97,-70.27 -142.52,-40.83 -169.38,-100.5 -36.24,141.04 -49.74,185.63 -133.78,298.81z"/>
    <path class="fil3" d="M7468.45 7444.46c131.52,182.3 139.01,-104.77 548.64,-118.52 339.95,-11.42 469.39,172.37 571.22,224.01l41.02 -100.48 1016.37 -2974.95 -202.37 -77.84 -1386.39 2840.57c-68.96,-63.89 -980.33,-1980.22 -1049.71,-2124.64 -87.56,-182.28 -306.35,-573.91 -349.59,-743.25 225.17,-109.8 401.2,-482.47 227.75,-826.51 -337.67,-669.76 -1411.12,-300.59 -1190.28,471.24 50.04,174.91 155.4,283.94 260.5,353.36 182.16,120.31 263.34,106.03 496.97,106.38l1015.87 2970.63z"/>
    <path class="fil4" d="M6662.52 11716.45c-65.28,-26.76 -135.06,-66.73 -218.56,-86.28 -771.36,-154.55 -1090.19,908.91 -404.15,1215.7 534.77,239.14 1044.75,-286.78 875.55,-790.7 -65.98,-196.5 -134.22,-219.06 -252.84,-338.72z"/>
    <path class="fil3" d="M4479.43 9690.64c-41.62,-112.37 -48.44,-154.01 -103.96,-256.83l-20.01 -18.79c-423.27,-601.73 -1409.91,-90.24 -1107.18,640.69 245.38,592.48 1271.03,510.05 1231.15,-365.07z"/>
    <path class="fil4" d="M4341.08 6702.02c84.04,-113.18 97.54,-157.77 133.78,-298.81 82.9,-805.23 -934.27,-978.83 -1219.42,-378.29 -335.15,705.86 632.86,1261.33 1085.64,677.1z"/>
    <path class="fil4" d="M11910.29 9251.53l-20.45 16.56 -27.36 14.92 -25.62 16.69 -23.67 18.76 -21.51 20.76 -19.61 22.68 -17.83 24.64 -14.72 27.5 -16.03 21.34c-36.87,64.76 -71.81,132.15 -93.1,216.47 -142.62,731 809.83,1040.08 1146.78,524.67 414.81,-634.5 -288.94,-1291.93 -866.88,-924.99z"/>
    <path class="fil3" d="M9436.09 11721.9l-23.77 14.96 -29.17 13.09 -25.74 17.6 -22.86 19.41 -20.22 22.09 -18.17 24.87 -17.27 21.52c-149.72,316.58 -208.02,549.69 44.15,835.47 183.75,208.25 508.42,293.28 813.75,109.98 538.24,-323.13 335.93,-1236.6 -441.57,-1183.3 -118.71,37.01 -154.77,45.57 -259.13,104.31z"/>
    <path class="fil4" d="M9443.33 4396.68l202.37 77.84c908.89,76.65 1007.36,-978.1 374.52,-1233.84 -370.8,-149.85 -701.01,78.69 -816.21,318.54 -111.5,232.18 -68.28,493.21 79.74,693.87 63.29,85.8 89.28,73.4 159.58,143.59z"/>
    <path class="fil3" d="M11618.19 6398.26c52.63,173.82 52.75,166.03 138.06,308.09 577.72,609.18 1374.69,-62.92 1089.67,-666.84 -302.94,-641.91 -1285.17,-440.72 -1227.73,358.75z"/>
   </g>
  </g>
  <polygon class="fil5" points="-81.73,16176.33 16176.34,16176.33 16176.34,-81.74 -81.73,-81.74 "/>
  <g id="_1621083455088">
   <g id="_2041993752688">
    <path class="fil5 str0" d="M4947.08 6604.58c175.49,-601.17 -169.73,-1230.3 -770.43,-1405.65 -601.17,-175.49 -1230.3,169.73 -1405.65,770.42 -175.5,601.17 169.73,1230.31 770.42,1405.66"/>
    <polygon id="_1_0" class="fil4" points="3976.5,7502.53 3599.9,7153.33 3471.18,7594.29 "/>
   </g>
  </g>
  <g id="_1621083456768">
   <g id="_2041993742560">
    <path class="fil5 str1" d="M9461 11188.56c610.92,-153.03 1230.23,218.17 1383.26,829.09 153.02,610.92 -218.17,1230.22 -829.09,1383.25 -610.93,153.03 -1230.23,-218.16 -1383.26,-829.09"/>
    <polygon id="_1_0_1" class="fil6" points="8521.13,12129.54 8409.2,12633.28 8857.3,12521.04 "/>
   </g>
  </g>
  <g id="_1621083451344">
   <g id="_2041993733728">
    <path class="fil5 str1" d="M4898.28 9409.37c198.62,597.65 -124.85,1243.16 -722.51,1441.79 -597.65,198.62 -1243.17,-124.86 -1441.79,-722.51 -198.63,-597.66 124.85,-1243.17 722.51,-1441.79"/>
    <polygon id="_1_1" class="fil6" points="3889.16,8543.06 3378.41,8469.41 3524.1,8907.78 "/>
   </g>
  </g>
  <g id="_1621083453696">
   <g id="_2041993724224">
    <path class="fil5 str1" d="M6635.21 4963.16c-606.37,170.17 -1235.88,-183.44 -1406.05,-789.81 -170.17,-606.37 183.44,-1235.88 789.81,-1406.05 606.37,-170.17 1235.88,183.44 1406.05,789.81"/>
    <polygon id="_1_2" class="fil6" points="7548.22,3996.09 7645.92,3489.39 7201.15,3614.21 "/>
   </g>
  </g>
  <g id="_1621083449952">
   <g id="_2041993719664">
    <path class="fil5 str0" d="M6608.94 11163.31c-592.3,-203.46 -1236.91,111.91 -1440.21,703.73 -203.46,592.29 111.9,1236.9 703.72,1440.2 592.29,203.47 1236.91,-111.9 1440.21,-703.72"/>
    <polygon id="_1_3" class="fil4" points="7460.43,12174.9 7093.97,12534.72 7528.41,12683.96 "/>
   </g>
  </g>
  <g id="_1621083449280">
   <g id="_2041993714432">
    <path class="fil5 str0" d="M11153.02 9503.87c-149.77,608.09 221.88,1221.98 829.48,1371.64 608.09,149.78 1221.98,-221.88 1371.64,-829.48 149.78,-608.09 -221.87,-1221.98 -829.48,-1371.64"/>
    <polygon id="_1_4" class="fil4" points="12084.56,8565.48 12475.65,8898.35 12585.52,8452.32 "/>
   </g>
  </g>
  <g id="_1621083450240">
   <g id="_2041993781104">
    <path class="fil5 str1" d="M11172.9 6641.7c-161.97,-608.61 200.11,-1233.29 808.72,-1395.25 608.61,-161.97 1233.29,200.11 1395.26,808.72 161.97,608.61 -200.11,1233.29 -808.72,1395.26"/>
    <polygon id="_1_5" class="fil6" points="12127.55,7567.68 12632.88,7672.22 12514.08,7225.8 "/>
   </g>
  </g>
  <g id="_1621083448128">
   <g id="_2041993777264">
    <path class="fil5 str0" d="M9540.05 4917.34c605.62,159.48 1225.37,-202.31 1384.72,-807.44 159.49,-605.62 -202.3,-1225.37 -807.44,-1384.73 -605.61,-159.48 -1225.37,202.31 -1384.72,807.44"/>
    <polygon id="_1_6" class="fil4" points="8616.67,3970.92 8955.76,3585.19 8511.54,3468.22 "/>
   </g>
  </g>
 </g>
</svg>
