<?xml version="1.0" encoding="UTF-8"?>
<!DOCTYPE svg PUBLIC "-//W3C//DTD SVG 1.1//EN" "http://www.w3.org/Graphics/SVG/1.1/DTD/svg11.dtd">
<!-- Creator: CorelDRAW 2020 (64-Bit) -->
<svg xmlns="http://www.w3.org/2000/svg" xml:space="preserve" width="162.585mm" height="162.585mm" version="1.1" style="shape-rendering:geometricPrecision; text-rendering:geometricPrecision; image-rendering:optimizeQuality; fill-rule:evenodd; clip-rule:evenodd"
viewBox="0 0 16258.54 16258.54"
 xmlns:xlink="http://www.w3.org/1999/xlink"
 xmlns:xodm="http://www.corel.com/coreldraw/odm/2003">
 <defs>
  <style type="text/css">
   <![CDATA[
    .str0 {stroke:#00A2FF;stroke-width:7.6;stroke-miterlimit:22.9256}
    .str1 {stroke:red;stroke-width:7.6;stroke-miterlimit:22.9256}
    .fil5 {fill:none}
    .fil4 {fill:#00A2FF}
    .fil0 {fill:#40ECFF}
    .fil2 {fill:#A3A3A4}
    .fil1 {fill:#C0F9FF}
    .fil3 {fill:red}
   ]]>
  </style>
   <clipPath id="id0">
    <path d="M-81.73 16176.33l16258.07 0 0 -16258.07 -16258.07 0 0 16258.07z"/>
   </clipPath>
 </defs>
 <g id="Layer_x0020_1">
  <metadata id="CorelCorpID_0Corel-Layer"/>
  <g id="_2040301245824">
   <polygon class="fil0" points="8106.45,4967.92 8106.29,9262.23 10710.72,11312.34 "/>
   <polygon class="fil1" points="8106.29,9262.23 8106.45,4967.92 5501.86,11312.34 "/>
  </g>
  <g>
  </g>
  <g style="clip-path:url(#id0)">
   <g>
    <path class="fil2" d="M5203.42 5353.73l1961.33 2222.6c60.59,60.52 107.69,90.9 139.51,167.69l-3179.95 186.36 -1.9 228.3 3177.01 187.8c-52.5,125.04 -165.68,192.71 -257.53,301.75l-525.36 595.33c-284.9,356.97 -881.31,969.58 -1181.7,1334.33 -58.16,70.62 -68.28,120.21 -155.58,147.22 40.01,38.89 65.2,51.58 101.87,88.38 36.66,36.79 48.85,61.65 87.3,102.11 41.32,-107.64 308.98,-306.09 427.58,-405.34l433.24 -390.84c52.37,-51.68 93.82,-76.79 149.75,-125.62l888.5 -802.91c116.02,-119.52 290.44,-206.89 441.56,-401.56 73.67,79.44 75.08,675.75 82.04,777.78l143.6 2401.99 -41.96 36.94 272.38 -11.86 36.22 12.09 -36.22 -12.09 184.57 -3204.95c68.88,36.5 221.82,190.51 305.06,257.38 104.61,84.03 195.22,187.05 298.01,272.25 433.8,359.6 905.52,809.31 1334.57,1181.55l294 256.41c62.63,60.37 114.74,80.42 145.81,160.08 37.43,-41.09 50,-66.58 86.12,-103.63 37.1,-38.07 60.33,-48.55 99.87,-89.72 -92.13,-26.82 -469.56,-506.21 -538.35,-585.44 -85.7,-98.71 -183.37,-185.79 -262.56,-286.66 -163.04,-207.68 -655.35,-715.43 -797.04,-893.93 -85.61,-107.86 -494.05,-548.27 -520.32,-608.49l3176.72 -189.89 -1.94 -229.98 -3179.61 -187.84 128.75 -154.95c146.17,-150.06 211.39,-259.18 397.1,-447.94l1310.14 -1480.8c63.68,-63.96 76.6,-83.86 127.87,-147.35 50.56,-62.61 99.08,-93.72 137.54,-157.26 -55.38,-67.58 -105.45,-117.2 -163.33,-178.62 -27.96,84.62 9.57,25.07 -54.93,87.14l-1417.89 1245.47c-153,120.16 -809.26,750.1 -908.02,791.96 -38.46,58.62 -72.47,71.81 -126.08,119.43 -57.82,51.35 -57.55,66.74 -163.01,68.74 -158.74,3 -226.76,-105.75 -318.49,-178.94l-2234.47 -1983.15c-76.4,-61.42 -112.4,-65.21 -148.74,-157.65 -41.85,104.44 -79.04,123.58 -153.04,186.33z"/>
    <path class="fil3" d="M7739.67 7308.2c91.73,73.19 159.75,181.94 318.49,178.94 105.46,-2 105.19,-17.39 163.01,-68.74 53.61,-47.62 87.62,-60.81 126.08,-119.43l-190.06 -3171.82 -219.03 2.68 -198.49 3178.37z"/>
    <path class="fil4" d="M11969.63 7929.16l1.94 229.98c134.31,742.74 1260.59,680.89 1278.25,-101.13 16.96,-750.67 -1090.78,-940.68 -1280.19,-128.85z"/>
    <path class="fil4" d="M7938.16 4129.83l219.03 -2.68c787.07,-186.5 636.06,-1281.86 -120.5,-1278.78 -338.83,1.38 -609.24,263.86 -636.8,579.3 -33.19,379.92 219.85,644.51 538.27,702.16z"/>
    <path class="fil4" d="M4122.41 8158.68l1.9 -228.3c-179.69,-793.94 -1273.88,-633.79 -1280.16,105.83 -2.98,351.87 261.77,622.3 586.03,647.93 362.33,28.65 636.46,-226.78 692.23,-525.46z"/>
    <path class="fil3" d="M5203.42 5353.73c74,-62.75 111.19,-81.89 153.04,-186.33 118.7,-52.57 202.24,-603.59 -121.52,-840.35 -286.31,-209.37 -619.48,-199.42 -864.03,43.84 -499.14,496.49 37.55,1401.32 832.51,982.84z"/>
    <path class="fil3" d="M10913.12 10723.55c-39.54,41.17 -62.77,51.65 -99.87,89.72 -36.12,37.05 -48.69,62.54 -86.12,103.63 -419.17,693.97 498.61,1316.75 1010.67,799.59 427.89,-432.13 37.52,-1386.75 -824.68,-992.94z"/>
    <path class="fil3" d="M5368.42 10915.6c-38.45,-40.46 -50.64,-65.32 -87.3,-102.11 -36.67,-36.8 -61.86,-49.49 -101.87,-88.38 -162.55,-73.37 -273.57,-135.09 -498.97,-83.87 -523.02,118.84 -629.77,769.88 -313.29,1086.35 471.07,471.06 1396.75,-11.43 1001.43,-811.99z"/>
    <path class="fil3" d="M10728.09 5174.4c57.88,61.42 107.95,111.04 163.33,178.62 164.33,66.49 245.63,140.49 482.71,101.96 174.16,-28.31 295.07,-116.63 379.78,-212.95 231.64,-263.43 199.11,-634.81 -30.46,-870.84 -495.57,-509.51 -1395.19,52.94 -995.36,803.21z"/>
    <path class="fil4" d="M7892.73 12006.04c-718.09,196.02 -549.53,1225.07 165.3,1213.92 318.93,-4.98 564.82,-245.46 602.35,-541.09 45.03,-354.64 -186.43,-608.01 -459.05,-672.6l-36.22 -12.09 -272.38 11.86z"/>
   </g>
  </g>
  <polygon class="fil5" points="-81.73,16176.33 16176.34,16176.33 16176.34,-81.74 -81.73,-81.74 "/>
  <g id="_1586074335360">
   <g id="_2040301302704">
    <path class="fil5 str0" d="M4634.57 7933.19c-73.5,-621.93 -637.21,-1066.03 -1258.65,-992.58 -621.93,73.5 -1066.03,637.2 -992.58,1258.64 73.5,621.94 637.21,1066.04 1258.65,992.59"/>
    <polygon id="_1_0" class="fil4" points="4092.29,9139.12 3609.15,8964.95 3663.06,9421.13 "/>
   </g>
  </g>
  <g id="_1586074330032">
   <g id="_2040301296944">
    <path class="fil5 str1" d="M10581.34 10387.63c502.48,-379.69 1217.61,-280.15 1597.3,222.33 379.69,502.47 280.15,1217.6 -222.33,1597.29 -502.47,379.69 -1217.6,280.15 -1597.29,-222.32"/>
    <polygon id="_1_0_1" class="fil3" points="10084.14,11621.16 10178.06,12128.58 10546.62,11850.08 "/>
   </g>
  </g>
  <g id="_1586074331712">
   <g id="_2040301299008">
    <path class="fil5 str1" d="M5686.18 10533.83c416.47,472.44 371.1,1193.04 -101.34,1609.51 -472.43,416.46 -1193.04,371.09 -1609.5,-101.34 -416.47,-472.44 -371.1,-1193.04 101.33,-1609.51"/>
    <polygon id="_1_1" class="fil3" points="4418.69,10130.99 3919.8,10262.87 4225.28,10609.4 "/>
   </g>
  </g>
  <g id="_1586074331088">
   <g id="_2040301287440">
    <path class="fil5 str1" d="M5546.64 5762.43c-491.58,393.69 -1209.24,314.33 -1602.92,-177.26 -393.69,-491.58 -314.33,-1209.23 177.26,-1602.92 491.58,-393.69 1209.23,-314.32 1602.92,177.26"/>
    <polygon id="_1_2" class="fil3" points="6008.91,4515.39 5900.74,4010.83 5540.17,4299.59 "/>
   </g>
  </g>
  <g id="_1586074326528">
   <g id="_2040301282112">
    <path class="fil5 str0" d="M7946.39 11479.41c-624.69,44.28 -1094.71,586.56 -1050.46,1210.76 44.28,624.69 586.57,1094.71 1210.76,1050.46 624.7,-44.28 1094.72,-586.56 1050.47,-1210.76"/>
    <polygon id="_1_3" class="fil4" points="9125.6,12077.59 8928.97,12552.04 9387.18,12519.56 "/>
   </g>
  </g>
  <g id="_1586074322112">
   <g id="_2040301278848">
    <path class="fil5 str0" d="M11480.08 8175.53c99.87,618.25 681.94,1037.98 1299.7,938.19 618.25,-99.87 1037.98,-681.95 938.19,-1299.7 -99.88,-618.25 -681.95,-1037.98 -1299.71,-938.19"/>
    <polygon id="_1_4" class="fil4" points="11970.61,6947.64 12460.72,7101.12 12387.46,6647.64 "/>
   </g>
  </g>
  <g id="_1586074317024">
   <g id="_2040301278704">
    <path class="fil5 str1" d="M10379.41 5533.39c-387.02,-496.86 -297.97,-1213.37 198.88,-1600.39 496.86,-387.01 1213.37,-297.96 1600.39,198.89 387.01,496.85 297.97,1213.37 -198.89,1600.38"/>
    <polygon id="_1_5" class="fil3" points="11620.1,6012.45 12126.07,5911.11 11842.2,5546.67 "/>
   </g>
  </g>
  <g id="_1586074314144">
   <g id="_2040301275296">
    <path class="fil5 str0" d="M8202.38 4584.62c619.76,-89.98 1048.75,-665.27 958.85,-1284.54 -89.98,-619.76 -665.27,-1048.75 -1284.54,-958.85 -619.76,89.98 -1048.75,665.26 -958.85,1284.54"/>
    <polygon id="_1_6" class="fil4" points="6982.49,4074.52 7143.79,3586.92 6689.19,3652.92 "/>
   </g>
  </g>
 </g>
</svg>
