<?xml version="1.0" encoding="UTF-8"?>
<!DOCTYPE svg PUBLIC "-//W3C//DTD SVG 1.1//EN" "http://www.w3.org/Graphics/SVG/1.1/DTD/svg11.dtd">
<!-- Creator: CorelDRAW 2020 (64-Bit) -->
<svg xmlns="http://www.w3.org/2000/svg" xml:space="preserve" width="162.585mm" height="162.585mm" version="1.1" style="shape-rendering:geometricPrecision; text-rendering:geometricPrecision; image-rendering:optimizeQuality; fill-rule:evenodd; clip-rule:evenodd"
viewBox="0 0 16258.54 16258.54"
 xmlns:xlink="http://www.w3.org/1999/xlink"
 xmlns:xodm="http://www.corel.com/coreldraw/odm/2003">
 <defs>
  <style type="text/css">
   <![CDATA[
    .str0 {stroke:#00A2FF;stroke-width:7.6;stroke-miterlimit:22.9256}
    .str1 {stroke:red;stroke-width:7.6;stroke-miterlimit:22.9256}
    .fil6 {fill:none}
    .fil4 {fill:#00A2FF}
    .fil0 {fill:#40ECFF}
    .fil2 {fill:#A3A3A4}
    .fil1 {fill:#C0F9FF}
    .fil3 {fill:red}
    .fil5 {fill:#FF7676}
   ]]>
  </style>
   <clipPath id="id0">
    <path d="M-81.73 16176.33l16258.07 0 0 -16258.07 -16258.07 0 0 16258.07z"/>
   </clipPath>
 </defs>
 <g id="Layer_x0020_1">
  <metadata id="CorelCorpID_0Corel-Layer"/>
  <g id="_2040170766016">
   <polygon class="fil0" points="8106.45,4967.92 8106.29,9262.23 10710.72,11312.34 "/>
   <polygon class="fil1" points="8106.29,9262.23 8106.45,4967.92 5501.86,11312.34 "/>
  </g>
  <g>
  </g>
  <g style="clip-path:url(#id0)">
   <g>
    <path class="fil2" d="M7345.32 7784.76c16.66,88.81 -23.63,190.55 -20.18,292.24 3.63,106.79 49.69,181.71 11.74,253.11l-616.13 694.55c-250.28,251.53 -292.61,342.46 -454.44,518.84l-767.79 860.14c-93.11,113.36 -233.94,222.36 -295.15,337.43 77.1,70.28 102.2,86.71 168.74,193.09l13.96 21.28 -13.96 -21.28c-1.76,-83.52 -7.88,-56.9 58.59,-111.85l413.05 -348.28c418.63,-404.95 875.14,-771.59 1301.24,-1151.83 51.83,-46.25 93.71,-99.48 147.3,-148.07 106.79,-96.84 218.37,-178.43 328.39,-285.47 230.92,-224.64 111.18,-123.26 416.2,-118.59 376.45,5.76 131.76,-120.97 421.03,113.43l654.55 572.42c115.67,102.74 204.74,192.82 322.23,290.43 224.21,186.26 432.39,385.07 655.09,571.84l488.99 440.58c125.31,109.28 113.43,49.49 149.75,161.9 74.04,-81.84 85.05,-99.42 168.69,-172.49l-603.83 -697.44c-365.54,-384.01 -897.51,-1040.41 -1213.73,-1364.82 -452.41,-464.13 -323.43,-340.75 -312.05,-606.41 4.39,-102.44 -35.71,-203.64 -18.85,-294.24l-48.98 -51.11c-273.88,-361.07 -68.95,-122.22 -370.43,-359.24l107.15 -141.4c-239.28,186.19 -97.19,90.22 -400.03,94.77 -292.63,4.39 -149.01,83.22 -379.46,-93.9l135.31 115.18c-23.73,25.59 -13.61,15.89 -41.99,37.2 -4.47,3.36 -9.39,6.87 -14.04,10.08 -4.46,3.07 -9.54,5.98 -14.04,8.81 -324.62,204.61 -195.44,167.57 -350.73,353.6 -2.7,3.23 -10.78,16.53 -12.81,12.8 -2.08,-3.81 -8.56,8.88 -13.38,12.7z"/>
    <path class="fil3" d="M5710.03 5936.55l67.8 67.7c104.2,139.02 58.19,-6.08 150.15,172.6 237.47,278.27 862.33,948.19 1067.76,1209.54 108.25,137.73 246.21,263.93 349.58,398.37 4.82,-3.82 11.3,-16.51 13.38,-12.7 2.03,3.73 10.11,-9.57 12.81,-12.8 155.29,-186.03 26.11,-148.99 350.73,-353.6 4.5,-2.83 9.58,-5.74 14.04,-8.81 4.65,-3.21 9.57,-6.72 14.04,-10.08 28.38,-21.31 18.26,-11.61 41.99,-37.2l-135.31 -115.18c-57.95,-41.75 -101.71,-95.08 -156.6,-140.67 -63.78,-52.99 -116.55,-86.95 -175.46,-142.56 -116.25,-109.76 -204.18,-181.83 -318.02,-288.36 -24.31,-14.55 -51.65,-27.7 -70.32,-42.57 -70.95,-56.49 1.95,-35.16 -125.63,-126.79 -4.31,-3.09 -35.58,-25.56 -37.62,-27.4 -26.5,-23.91 -12.02,-10.65 -33.58,-38.14 -84.98,-97.77 -211.16,-191.23 -306.44,-270.76 -180.93,-110.42 -23.27,-40.81 -207.53,-178.01l-58.65 -57.38 -807.43 -722.16c65.77,-156.66 135.18,-224.35 109.37,-456.45 -54.74,-492.22 -665.88,-762.67 -1082.33,-398.48 -303.9,265.77 -267.76,973 298.19,1103.02 280.53,64.45 334.97,-43.53 531.15,-86.8l493.93 575.67z"/>
    <path class="fil3" d="M10498.1 5414.39l-70.69 66.27c-32.01,22.71 -42.73,24.25 -69.89,56.76 -55.64,66.61 13.46,29.27 -126.18,112.38 -96.32,83.98 -217.4,169.99 -305.86,270.81 -22.25,29.04 -6.03,13.72 -33.09,38.35l-106.72 84.54c-56.93,69.02 13.97,25.92 -126.55,112.33 -49.41,44.78 -207.27,178.15 -227.49,216.05 -43.85,65.04 -14.8,32.36 -99.04,85.35 -203.88,128.26 -45.51,78.63 -246.29,204.61 -51,50.41 -104.86,104.48 -160.27,149.46l-489.54 422.22 -107.15 141.4c301.48,237.02 96.55,-1.83 370.43,359.24l48.98 51.11 262.51 -296.17c54.28,-55.68 83.83,-102.77 133.71,-162.91 44.26,-53.36 86.64,-88.06 131.49,-143.04l1070.47 -1212.59c113.58,-120.45 174.45,-182.29 270.14,-300.96l268.21 -306.23c-22.67,-37.52 -102.47,-97.48 -149.03,-157.88 -61.46,36.74 -188.47,149.63 -238.15,208.9z"/>
    <path class="fil4" d="M10736.25 5205.49c46.56,60.4 126.36,120.36 149.03,157.88 185.16,66.34 258.9,141.94 509.51,91.47 466.72,-93.99 700.36,-704.85 314.32,-1090.62 -572.68,-572.27 -1433.61,265.67 -972.86,841.27z"/>
    <path class="fil4" d="M5386.07 10955.44l-13.96 -21.28c-66.54,-106.38 -91.64,-122.81 -168.74,-193.09 -168.32,-66.72 -240.35,-142.41 -484.54,-104.16 -154.51,24.2 -321.91,132.15 -383.07,210.23 -197.35,251.94 -223.63,610.95 13.28,856.13 521.64,539.86 1383.75,-33.79 1037.03,-747.83z"/>
    <path class="fil3" d="M10897.21 10748.18c-83.64,73.07 -94.65,90.65 -168.69,172.49 -396.96,742.8 508.82,1317.42 1003.89,790.3 236.5,-251.81 240.65,-591.33 28.36,-865.95 -152.14,-196.8 -600.1,-323.34 -863.56,-96.84z"/>
    <path class="fil5" d="M9086.3 6661.84c200.78,-125.98 42.41,-76.35 246.29,-204.61 84.24,-52.99 55.19,-20.31 99.04,-85.35 -309.82,200.03 -107.22,82.59 -302.21,242.02 -46.73,38.2 -20.77,15.9 -43.12,47.94z"/>
    <path class="fil5" d="M6433.33 6157.14c-33.14,-47.32 -11.61,-22.18 -54.94,-56.12 -115.17,-90.19 -47.11,-65.96 -126.05,-126.25 -35.7,-27.27 -46.45,-30.75 -85.19,-53.02l58.65 57.38c184.26,137.2 26.6,67.59 207.53,178.01z"/>
    <path class="fil5" d="M7006.92 6662.8l-20.13 -26.27c-59.74,-55.58 -51.79,-25.76 -102.96,-90.65 -56.12,-71.18 -27.54,-50.62 -144.06,-117.98 21.56,27.49 7.08,14.23 33.58,38.14 2.04,1.84 33.31,24.31 37.62,27.4 127.58,91.63 54.68,70.3 125.63,126.79 18.67,14.87 46.01,28.02 70.32,42.57z"/>
    <path class="fil5" d="M9659.12 6155.83c140.52,-86.41 69.62,-43.31 126.55,-112.33l106.72 -84.54c27.06,-24.63 10.84,-9.31 33.09,-38.35 -178.68,104.65 -100.45,96.46 -197.63,170.84l-68.73 64.38z"/>
    <path class="fil5" d="M10231.34 5649.8c139.64,-83.11 70.54,-45.77 126.18,-112.38 27.16,-32.51 37.88,-34.05 69.89,-56.76l70.69 -66.27 -235.55 197.92c-25.46,23.34 -11.57,10.16 -31.21,37.49z"/>
    <path class="fil5" d="M5927.98 6176.85c-91.96,-178.68 -45.95,-33.58 -150.15,-172.6l-67.8 -67.7 217.95 240.3z"/>
   </g>
  </g>
  <polygon class="fil6" points="-81.73,16176.33 16176.34,16176.33 16176.34,-81.74 -81.73,-81.74 "/>
  <g id="_1621092594208">
   <g id="_2040288223776">
    <path class="fil6 str0" d="M5524.36 10387.94c-498.58,-378.98 -1209.58,-281.73 -1588.26,216.45 -378.98,498.58 -281.73,1209.58 216.45,1588.26 498.57,378.98 1209.58,281.73 1588.26,-216.45"/>
    <polygon id="_1_0" class="fil4" points="6015.57,11615.56 5554.74,11842.27 5920.44,12120.25 "/>
   </g>
  </g>
  <g id="_1621092593632">
   <g id="_2040288217728">
    <path class="fil6 str1" d="M10581.34 10387.63c502.48,-379.69 1217.61,-280.15 1597.3,222.33 379.69,502.47 280.15,1217.6 -222.33,1597.29 -502.47,379.69 -1217.6,280.15 -1597.29,-222.32"/>
    <polygon id="_1_0_1" class="fil3" points="10084.14,11621.16 10178.06,12128.58 10546.62,11850.08 "/>
   </g>
  </g>
  <g id="_1621092592432">
   <g id="_2040288208320">
    <path class="fil6 str1" d="M5536.64 5712.43c-491.58,393.69 -1209.24,314.33 -1602.92,-177.26 -393.69,-491.58 -314.33,-1209.23 177.26,-1602.92 491.58,-393.69 1209.23,-314.32 1602.92,177.26"/>
    <polygon id="_1_1" class="fil3" points="5998.91,4465.39 5890.74,3960.83 5530.17,4249.59 "/>
   </g>
  </g>
  <g id="_1621092588832">
   <g id="_2040288201168">
    <path class="fil6 str0" d="M10626.74 5677.98c507.27,367.26 1215.82,253.46 1582.78,-253.41 367.26,-507.27 253.46,-1215.82 -253.41,-1582.78 -507.27,-367.26 -1215.82,-253.46 -1582.78,253.41"/>
    <polygon id="_1_2" class="fil4" points="10107.05,4462.14 10562.47,4224.75 10190.39,3955.37 "/>
   </g>
  </g>
 </g>
</svg>
