<?xml version="1.0" encoding="UTF-8"?>
<!DOCTYPE svg PUBLIC "-//W3C//DTD SVG 1.1//EN" "http://www.w3.org/Graphics/SVG/1.1/DTD/svg11.dtd">
<!-- Creator: CorelDRAW 2020 (64-Bit) -->
<svg xmlns="http://www.w3.org/2000/svg" xml:space="preserve" width="162.585mm" height="162.585mm" version="1.1" style="shape-rendering:geometricPrecision; text-rendering:geometricPrecision; image-rendering:optimizeQuality; fill-rule:evenodd; clip-rule:evenodd"
viewBox="0 0 16258.54 16258.54"
 xmlns:xlink="http://www.w3.org/1999/xlink"
 xmlns:xodm="http://www.corel.com/coreldraw/odm/2003">
 <defs>
  <style type="text/css">
   <![CDATA[
    .str1 {stroke:#00A2FF;stroke-width:7.6;stroke-miterlimit:22.9256}
    .str0 {stroke:red;stroke-width:7.6;stroke-miterlimit:22.9256}
    .fil5 {fill:none}
    .fil4 {fill:#00A2FF}
    .fil0 {fill:#40ECFF}
    .fil2 {fill:#A3A3A4}
    .fil1 {fill:#C0F9FF}
    .fil3 {fill:#FE0000}
    .fil6 {fill:red}
   ]]>
  </style>
   <clipPath id="id0">
    <path d="M-81.73 16176.33l16258.07 0 0 -16258.07 -16258.07 0 0 16258.07z"/>
   </clipPath>
 </defs>
 <g id="Layer_x0020_1">
  <metadata id="CorelCorpID_0Corel-Layer"/>
  <g id="_2040255043696">
   <polygon class="fil0" points="8106.45,4967.92 8106.29,9262.23 10710.72,11312.34 "/>
   <polygon class="fil1" points="8106.29,9262.23 8106.45,4967.92 5501.86,11312.34 "/>
  </g>
  <g>
  </g>
  <g style="clip-path:url(#id0)">
   <g>
    <path class="fil2" d="M7735.9 7380.88c-72.98,66.48 -133.43,92.44 -197.89,157.11 -56.71,56.89 -101.84,127.34 -156.49,198.82l-3255.36 187.95 -1.18 239.4 3274.59 191.68c80.73,175.46 165.34,258.35 340.38,340.15l199.19 3279.12 -46.79 30.7 274.01 -12.72 47.13 18.61 -47.13 -18.61 190.56 -3279.83c157.11,-157.43 227.14,-97.56 338.59,-360.39l3277.31 -193.28 -3.55 -234 -3259.98 -189.83c-52.29,-68.2 -85.85,-134.22 -149.6,-200.83 -69.76,-72.88 -121.51,-100.26 -205.91,-153.59 -301.98,-94.38 -323.03,-68.55 -617.88,-0.46z"/>
    <path class="fil3" d="M7735.9 7380.88c294.85,-68.09 315.9,-93.92 617.88,0.46l-195.68 -3254.45 -219.96 2.52 -202.24 3251.47z"/>
    <path class="fil3" d="M4124.98 8164.16l1.18 -239.4c-199.6,-797.58 -1291.8,-616.78 -1279.61,133.38 12.28,755.82 1121.98,873.02 1278.43,106.02z"/>
    <path class="fil4" d="M7938.14 4129.41l219.96 -2.52c812.8,-192.12 608.38,-1282.38 -121.46,-1278.78 -759.3,3.75 -894.96,1130.24 -98.5,1281.3z"/>
    <path class="fil3" d="M11969.27 7925.59l3.55 234c55.49,300.08 337.88,559.64 705.02,520.1 315.69,-33.99 574.67,-302.46 572.32,-642.87 -5.12,-744.23 -1092.91,-904.7 -1280.89,-111.23z"/>
    <path class="fil4" d="M7892.35 12005.81c-713.47,197.78 -549.46,1201.76 144.22,1213.42 738.48,12.41 858.88,-1042.49 176.92,-1207.53l-47.13 -18.61 -274.01 12.72z"/>
   </g>
  </g>
  <polygon class="fil5" points="-81.73,16176.33 16176.34,16176.33 16176.34,-81.74 -81.73,-81.74 "/>
  <g id="_1621080288208">
   <g id="_2040255028672">
    <path class="fil5 str0" d="M4574.82 8134.88c-67.79,626.13 -630.33,1078.76 -1256.47,1010.97 -626.13,-67.79 -1078.76,-630.33 -1010.97,-1256.47 67.79,-626.14 630.33,-1078.76 1256.47,-1010.97"/>
    <polygon id="_1_0" class="fil6" points="4017.14,6927.49 3583.23,6648.18 3533.51,7107.45 "/>
   </g>
  </g>
  <g id="_1621080277504">
   <g id="_2040255059632">
    <path class="fil5 str1" d="M7946.39 11479.41c-624.69,44.28 -1094.71,586.56 -1050.46,1210.76 44.28,624.69 586.57,1094.71 1210.76,1050.46 624.7,-44.28 1094.72,-586.56 1050.47,-1210.76"/>
    <polygon id="_1_0_1" class="fil4" points="9125.6,12077.59 8928.97,12552.04 9387.18,12519.56 "/>
   </g>
  </g>
  <g id="_1621080269584">
   <g id="_2040255055696">
    <path class="fil5 str0" d="M11464.32 7930.46c46.53,-628.07 593.41,-1099.51 1221.49,-1052.97 628.07,46.53 1099.51,593.41 1052.97,1221.48 -46.53,628.08 -593.41,1099.51 -1221.48,1052.98"/>
    <polygon id="_1_1" class="fil6" points="12062.61,9118.26 12505.73,9382.7 12539.86,8922.01 "/>
   </g>
  </g>
  <g id="_1621080269104">
   <g id="_2040255050896">
    <path class="fil5 str1" d="M8202.38 4584.62c619.76,-89.98 1048.75,-665.27 958.85,-1284.54 -89.98,-619.76 -665.27,-1048.75 -1284.54,-958.85 -619.76,89.98 -1048.75,665.26 -958.85,1284.54"/>
    <polygon id="_1_2" class="fil4" points="6982.49,4074.52 7143.79,3586.92 6689.19,3652.92 "/>
   </g>
  </g>
 </g>
</svg>
