<?xml version="1.0" encoding="UTF-8"?>
<!DOCTYPE svg PUBLIC "-//W3C//DTD SVG 1.1//EN" "http://www.w3.org/Graphics/SVG/1.1/DTD/svg11.dtd">
<!-- Creator: CorelDRAW 2020 (64-Bit) -->
<svg xmlns="http://www.w3.org/2000/svg" xml:space="preserve" width="162.585mm" height="162.585mm" version="1.1" style="shape-rendering:geometricPrecision; text-rendering:geometricPrecision; image-rendering:optimizeQuality; fill-rule:evenodd; clip-rule:evenodd"
viewBox="0 0 16258.54 16258.54"
 xmlns:xlink="http://www.w3.org/1999/xlink"
 xmlns:xodm="http://www.corel.com/coreldraw/odm/2003">
 <defs>
  <style type="text/css">
   <![CDATA[
    .str0 {stroke:#00A2FF;stroke-width:7.6;stroke-miterlimit:22.9256}
    .str1 {stroke:red;stroke-width:7.6;stroke-miterlimit:22.9256}
    .fil5 {fill:none}
    .fil4 {fill:#00A2FF}
    .fil0 {fill:#40ECFF}
    .fil2 {fill:#A3A3A4}
    .fil1 {fill:#C0F9FF}
    .fil3 {fill:red}
   ]]>
  </style>
   <clipPath id="id0">
    <path d="M-81.71 16176.31l16258.03 0 0 -16258.03 -16258.03 0 0 16258.03z"/>
   </clipPath>
 </defs>
 <g id="Layer_x0020_1">
  <metadata id="CorelCorpID_0Corel-Layer"/>
  <g id="_2040301263584">
   <polygon class="fil0" points="8106.45,4967.92 8106.29,9262.23 10710.72,11312.34 "/>
   <polygon class="fil1" points="8106.29,9262.23 8106.45,4967.92 5501.86,11312.34 "/>
  </g>
  <g>
  </g>
  <g style="clip-path:url(#id0)">
   <g>
    <path class="fil2" d="M7615.01 6412.16c-8.57,56.95 -3.47,30.41 -35.02,67.69 -91.65,108.3 -207.09,156.83 -247.33,466.02l-71.51 -21.95 66.04 55.71c1.58,349.12 176.89,600.94 416.49,692.11 18.12,408.66 212.13,3133.17 181.08,3275.96l240.24 -3.42 194.89 -3264.42c138.49,-85.2 229.71,-139.37 308.23,-280.1 156.53,-280.51 59.13,-354.59 141.95,-456.31 -56.03,-43.4 -17.97,26.33 -74.64,-155.71 -72.26,-232.13 -233.68,-305.23 -247.17,-370.92 -171.56,-30.1 -214.03,-129.27 -473.32,-116.73 -146.26,7.06 -344.73,122.09 -399.93,112.07z"/>
    <path class="fil3" d="M4613.78 5168.72l1330.09 880.31c222.72,142.97 443.01,285.17 666.03,433.68 112.63,75 226.15,148.99 328.45,220.83 88.21,61.95 258.46,151 322.81,220.39l71.51 21.95c40.24,-309.19 155.68,-357.72 247.33,-466.02 31.55,-37.28 26.45,-10.74 35.02,-67.69l-2900.61 -1439.14 -100.62 195.69 -0.01 0z"/>
    <path class="fil3" d="M8488.26 6416.82c13.49,65.69 174.91,138.79 247.17,370.92 56.67,182.04 18.61,112.31 74.64,155.71l2690 -1785.57 -118.17 -181.15 -2893.64 1440.09z"/>
    <path class="fil4" d="M7924.76 10947.7c-772.15,183.78 -628.65,1284.45 133.26,1277.93 712.46,-6.11 929.32,-1067.34 106.98,-1281.35l-240.24 3.42z"/>
    <path class="fil4" d="M4613.78 5168.72l100.62 -195.69c215.88,-803.66 -779.7,-1173.39 -1169.27,-539.95 -267.8,435.44 114.95,1056.41 679.43,953.62 190.23,-34.64 297.26,-142.21 389.22,-217.98z"/>
    <path class="fil4" d="M11381.9 4976.74l118.17 181.15c557.02,580.48 1419.49,-71.49 1046.71,-743.58 -121.44,-218.95 -463.86,-424.08 -823.23,-259.46 -302.77,138.69 -417.84,394.44 -341.65,821.89z"/>
   </g>
  </g>
  <polygon class="fil5" points="-81.71,16176.31 16176.32,16176.31 16176.32,-81.72 -81.71,-81.72 "/>
  <g id="_1621092212080">
   <g id="_2040301258592">
    <path class="fil5 str0" d="M11153.25 5445.6c415.63,468.47 1131.99,510.93 1600.09,95.64 468.47,-415.63 510.93,-1131.99 95.64,-1600.09 -415.63,-468.46 -1132,-510.93 -1600.09,-95.63"/>
    <polygon id="_1_0" class="fil4" points="10909.41,4146.03 11405.46,4012.98 11100.6,3669.37 "/>
   </g>
  </g>
  <g id="_1621092209440">
   <g id="_2040301254272">
    <path class="fil5 str1" d="M11163.86 5086.48c-201.69,-460.58 8.18,-997.45 468.76,-1199.13 460.58,-201.69 997.44,8.19 1199.13,468.76 201.69,460.58 -8.19,997.45 -468.76,1199.13"/>
    <polygon id="_1_0_1" class="fil3" points="12029.56,5701.25 12440.99,5722.39 12293.05,5384.56 "/>
   </g>
  </g>
  <g id="_1621092206992">
   <g id="_2040301256480">
    <path class="fil5 str0" d="M5109.78 5180.47c221.94,-585.62 -73.06,-1239.81 -658.21,-1461.57 -585.62,-221.94 -1239.81,73.06 -1461.57,658.21 -221.94,585.62 73.06,1239.81 658.22,1461.57"/>
    <polygon id="_1_1" class="fil4" points="4071.99,5999.82 3723.84,5622.25 3561.05,6051.8 "/>
   </g>
  </g>
  <g id="_1621092206944">
   <g id="_2040301251680">
    <path class="fil5 str1" d="M4786.79 5337.81c-314.28,392.48 -887.22,455.87 -1279.69,141.59 -392.47,-314.28 -455.86,-887.22 -141.58,-1279.69 314.28,-392.48 887.21,-455.87 1279.69,-141.59"/>
    <polygon id="_1_2" class="fil3" points="4929.34,4285.64 4757.03,3911.43 4526.51,4199.31 "/>
   </g>
  </g>
  <g id="_1621092206848">
   <g id="_2040301253168">
    <path class="fil5 str0" d="M7895.28 10467.34c-620.46,85.03 -1054.02,656.88 -969.06,1276.85 85.04,620.46 656.88,1054.02 1276.85,969.06 620.47,-85.03 1054.03,-656.88 969.06,-1276.85"/>
    <polygon id="_1_3" class="fil4" points="9111.07,10987.15 8945.89,11473.44 9400.99,11411.07 "/>
   </g>
  </g>
  <g id="_1621092206560">
   <g id="_2040301248272">
    <path class="fil5 str1" d="M8187.9 10675.81c494.96,88.41 824.54,561.33 736.13,1056.29 -88.41,494.97 -561.33,824.55 -1056.3,736.13 -494.97,-88.41 -824.54,-561.33 -736.13,-1056.29"/>
    <polygon id="_1_4" class="fil3" points="7195.6,11053.61 6949.3,11383.84 7312.35,11448.69 "/>
   </g>
  </g>
  <g>
  </g>
 </g>
</svg>
